<svg width="36" height="36" viewBox="0 0 36 36" fill="none" xmlns="http://www.w3.org/2000/svg">
<path d="M17.9971 1C21.9713 1 24.9547 1.00229 27.3057 1.34668C29.6225 1.6861 31.2008 2.34254 32.4277 3.56641C33.6546 4.79345 34.3122 6.37184 34.6523 8.68848C34.9975 11.0393 35 14.0226 35 17.9971C35 21.9712 34.9974 24.954 34.6523 27.3047C34.3122 29.6215 33.6548 31.2006 32.4277 32.4277C31.2008 33.6547 29.6207 34.3121 27.3027 34.6523C24.9511 34.9975 21.9681 35 17.9971 35C14.0259 35 11.0422 34.9975 8.69141 34.6523C6.37438 34.3121 4.79664 33.6539 3.57324 32.4277H3.57227C2.34533 31.2008 1.68787 29.6207 1.34766 27.3027C1.0025 24.9511 1 21.9681 1 17.9971C1 14.0259 1.0025 11.0422 1.34766 8.69141C1.68787 6.37438 2.34607 4.79664 3.57227 3.57324L3.57324 3.57227C4.79683 2.34588 6.3734 1.68782 8.68945 1.34766C11.0394 1.00255 14.0227 1 17.9971 1Z" stroke="#F9F9F6" stroke-width="2"/>
<path d="M15.9053 28V19.502H13V16.125H15.9053V13.4643C15.9053 10.5734 17.7083 9 20.3409 9C21.6023 9 22.6856 9.09277 23 9.13359V12.1543H21.1742C19.7424 12.1543 19.4659 12.8223 19.4659 13.7982V16.125H22.697L22.2538 19.502H19.4659V28" fill="#F9F9F6"/>
</svg>
